<svg width="512" height="512" viewBox="0 0 512 512" xmlns="http://www.w3.org/2000/svg">
  <!-- Outer circle -->
  <circle cx="256" cy="256" r="200" stroke="#000000" stroke-width="14" fill="none"/>

  <!-- Inner circle -->
  <circle cx="256" cy="256" r="125" stroke="#C5C5C5" stroke-width="10" fill="none"/>

  <!-- Mic perfectly centered -->
  <!-- Base mic icon is 24x24; we:
       1) move origin to center (256,256)
       2) scale up
       3) translate -12,-12 to center the 24x24 box -->
  <g transform="translate(256 256) scale(10) translate(-12 -12)">
    <path d="M12 3C10.343 3 9 4.343 9 6V13C9 14.657 10.343 16 12 16C13.657 16 15 14.657 15 13V6C15 4.343 13.657 3 12 3Z" fill="#000000"/>
    <path d="M7 11C7 13.7614 9.23858 16 12 16C14.7614 16 17 13.7614 17 11H16C16 13.2091 14.2091 15 12 15C9.79086 15 8 13.2091 8 11H7Z" fill="#000000"/>
    <rect x="11.25" y="16" width="1.5" height="3" fill="#000000"/>
    <path d="M9 20H15V21H9V20Z" fill="#000000"/>
  </g>
</svg>
